<svg xmlns="http://www.w3.org/2000/svg" xmlns:xlink="http://www.w3.org/1999/xlink" viewBox="0 0 561.57 628.36"><defs><style>.cls-1{isolation:isolate;}.cls-2{fill:#48f400;}.cls-11,.cls-3{fill:#fff;}.cls-3,.cls-6,.cls-9{mix-blend-mode:soft-light;}.cls-4{fill:url(#linear-gradient);}.cls-5,.cls-8{mix-blend-mode:multiply;}.cls-5{fill:url(#linear-gradient-2);}.cls-6{fill:url(#linear-gradient-3);}.cls-7{fill:url(#linear-gradient-4);}.cls-8{fill:url(#linear-gradient-5);}.cls-9{fill:url(#linear-gradient-6);}.cls-10{fill:#04b704;}.cls-12{fill:#fdbcd2;}.cls-13{fill:#90e0f7;}.cls-14{fill:url(#linear-gradient-7);}.cls-15{fill:url(#linear-gradient-8);}.cls-16{fill:url(#linear-gradient-9);}.cls-17{fill:url(#linear-gradient-10);}.cls-18{fill:none;stroke:#48f400;stroke-miterlimit:10;stroke-width:6px;}</style><linearGradient id="linear-gradient" x1="360.71" y1="721.49" x2="516.46" y2="721.49" gradientUnits="userSpaceOnUse"><stop offset="0" stop-color="#fdbcd2"/><stop offset="1" stop-color="#f44a85"/></linearGradient><linearGradient id="linear-gradient-2" x1="360.71" y1="708.82" x2="465.59" y2="708.82" xlink:href="#linear-gradient"/><linearGradient id="linear-gradient-3" x1="397.49" y1="739.8" x2="510.23" y2="739.8" xlink:href="#linear-gradient"/><linearGradient id="linear-gradient-4" x1="575.57" y1="720.58" x2="731.32" y2="720.58" gradientUnits="userSpaceOnUse"><stop offset="0" stop-color="#2bc4f3"/><stop offset="0.49" stop-color="#05a7d3"/><stop offset="1" stop-color="#09acc6"/></linearGradient><linearGradient id="linear-gradient-5" x1="626.44" y1="707.92" x2="731.32" y2="707.92" xlink:href="#linear-gradient-4"/><linearGradient id="linear-gradient-6" x1="581.8" y1="738.9" x2="694.54" y2="738.9" xlink:href="#linear-gradient-4"/><linearGradient id="linear-gradient-7" x1="227.45" y1="288.56" x2="323.11" y2="288.56" xlink:href="#linear-gradient-4"/><linearGradient id="linear-gradient-8" x1="506.88" y1="455.54" x2="619.69" y2="455.54" gradientUnits="userSpaceOnUse"><stop offset="0" stop-color="#2bc4f3"/><stop offset="0.49" stop-color="#05a7d3"/><stop offset="0.97" stop-color="#0ac4ef"/></linearGradient><linearGradient id="linear-gradient-9" x1="226.5" y1="277.42" x2="297.35" y2="277.42" xlink:href="#linear-gradient"/><linearGradient id="linear-gradient-10" x1="214.73" y1="269.61" x2="297.35" y2="269.61" gradientUnits="userSpaceOnUse"><stop offset="0" stop-color="#fdbcd2"/><stop offset="1" stop-color="#f55f9c"/></linearGradient></defs><g class="cls-1"><g id="Layer_1" data-name="Layer 1"><path class="cls-2" d="M579.72,603.38H504.28c-3.13,0-5.66,2.1-5.66,4.69v3.11c0,2.59,2.53,4.69,5.66,4.69h75.44c3.12,0,5.65-2.1,5.65-4.69v-3.11C585.37,605.48,582.84,603.38,579.72,603.38Z" transform="translate(-265.41 -165.29)"/><path class="cls-2" d="M579.72,622.1H504.28c-3.13,0-5.66,2.1-5.66,4.69v3.12c0,2.58,2.53,4.68,5.66,4.68h75.44c3.12,0,5.65-2.1,5.65-4.68v-3.12C585.37,624.2,582.84,622.1,579.72,622.1Z" transform="translate(-265.41 -165.29)"/><path class="cls-2" d="M579.72,640.83H504.28c-3.13,0-5.66,2.09-5.66,4.68v3.12c0,2.59,2.53,4.68,5.66,4.68h75.44c3.12,0,5.65-2.09,5.65-4.68v-3.12C585.37,642.92,582.84,640.83,579.72,640.83Z" transform="translate(-265.41 -165.29)"/><path class="cls-2" d="M513.71,659.55h56.58c0,9.37-15.09,15.6-28.29,15.6S513.71,668.92,513.71,659.55Z" transform="translate(-265.41 -165.29)"/><path class="cls-3" d="M552,325.58A45.66,45.66,0,0,1,643.26,327c0,1.2-.06,2.39-.16,3.57a47.12,47.12,0,0,1,45,79.89,27.22,27.22,0,0,1,2.74,27.8,50.63,50.63,0,0,1-27.13,93.39H663a55.88,55.88,0,1,1-111.06,8.75V325.58Z" transform="translate(-265.41 -165.29)"/><path class="cls-3" d="M534.59,325.58A45.65,45.65,0,0,0,443.31,327c0,1.2.06,2.39.15,3.57a47.12,47.12,0,0,0-45,79.89,27.28,27.28,0,0,0-2.74,27.8,50.63,50.63,0,0,0,27.13,93.39h.69a55.88,55.88,0,1,0,111.06,8.75V325.58Z" transform="translate(-265.41 -165.29)"/><path class="cls-2" d="M605.44,595.87A57.9,57.9,0,0,1,547.6,538V331.13a3.71,3.71,0,0,1,.06-.67,48,48,0,0,1,95.91.41,48.82,48.82,0,0,1,8.36-.72,49.4,49.4,0,0,1,36,83.27,30.39,30.39,0,0,1,2.42,24.74,52.79,52.79,0,0,1-27.23,95.33c.12,1.52.18,3,.18,4.55A57.89,57.89,0,0,1,605.44,595.87ZM555.63,331.65V538a49.81,49.81,0,1,0,99-7.82,4,4,0,0,1,4-4.63h.61a44.76,44.76,0,0,0,24-82.56,4,4,0,0,1-1.48-5.1,22.22,22.22,0,0,0-2.23-22.68,4,4,0,0,1,.5-5.33,41.38,41.38,0,0,0-39.49-70.15,4,4,0,0,1-5.1-4.17c.09-1.19.13-2.19.13-3.13a40,40,0,0,0-79.91-1.23A2.69,2.69,0,0,1,555.63,331.65Zm-4-.52h0Z" transform="translate(-265.41 -165.29)"/><path class="cls-2" d="M661.53,458.72a4,4,0,1,1,0-8,22.23,22.23,0,1,0,0-44.45,4,4,0,0,1,0-8,30.25,30.25,0,0,1,0,60.5Z" transform="translate(-265.41 -165.29)"/><path class="cls-2" d="M640.17,361a4,4,0,0,1-3.3-6.29,12.94,12.94,0,0,0,2.3-7.41,13.07,13.07,0,0,0-20.84-10.5,4,4,0,1,1-4.78-6.44,21.09,21.09,0,0,1,29.93,28.9A4,4,0,0,1,640.17,361Z" transform="translate(-265.41 -165.29)"/><path class="cls-2" d="M626.68,424.11a30.75,30.75,0,0,1-21.74-52.49,4,4,0,1,1,5.67,5.67,22.73,22.73,0,1,0,34.7,29.1,4,4,0,0,1,6.57,4.61A30.81,30.81,0,0,1,626.68,424.11Z" transform="translate(-265.41 -165.29)"/><path class="cls-2" d="M597,570.38a30.16,30.16,0,0,1-6.79-.77,30.74,30.74,0,0,1-9.58-56,4,4,0,0,1,4.28,6.79,22.72,22.72,0,0,0,7.08,41.39,22.8,22.8,0,0,0,20.31-5.33,4,4,0,0,1,5.38,5.94A30.79,30.79,0,0,1,597,570.38Z" transform="translate(-265.41 -165.29)"/><path class="cls-2" d="M575.24,367.67a30.59,30.59,0,0,1-16.48-4.84,4,4,0,0,1,4.32-6.77A22.73,22.73,0,1,0,584,315.91a4,4,0,1,1,3.08-7.41,30.75,30.75,0,0,1-5.15,58.43A31.19,31.19,0,0,1,575.24,367.67Z" transform="translate(-265.41 -165.29)"/><path class="cls-2" d="M586.38,435.93a26.52,26.52,0,0,1-26.49-26.49,4,4,0,0,1,8,0,18.46,18.46,0,0,0,36.69,2.95,4,4,0,0,1,7.93,1.27A26.39,26.39,0,0,1,586.38,435.93Z" transform="translate(-265.41 -165.29)"/><path class="cls-2" d="M635,545.7a32,32,0,0,1-19.35-6.45,4,4,0,0,1,4.82-6.42A24,24,0,0,0,635,537.67a24.22,24.22,0,0,0,15-43.26,4,4,0,1,1,5-6.3A32.24,32.24,0,0,1,635,545.7Z" transform="translate(-265.41 -165.29)"/><path class="cls-2" d="M602.12,496.66A26.4,26.4,0,0,1,579.32,457a4,4,0,0,1,6.95,4,18.37,18.37,0,0,0,31.59,18.76,4,4,0,1,1,6.85,4.18,26.46,26.46,0,0,1-22.59,12.66Z" transform="translate(-265.41 -165.29)"/><path class="cls-2" d="M481.13,595.87A57.9,57.9,0,0,1,423.29,538c0-1.51.07-3,.18-4.55a52.78,52.78,0,0,1-27.22-95.33,30.28,30.28,0,0,1,2.42-24.74,49.4,49.4,0,0,1,36-83.27,48.82,48.82,0,0,1,8.36.72,48,48,0,0,1,95.92-.41,4.91,4.91,0,0,1,.05.67V538A57.89,57.89,0,0,1,481.13,595.87ZM428,525.59a4,4,0,0,1,3,1.38,4,4,0,0,1,.93,3.25,51.4,51.4,0,0,0-.61,7.82,49.81,49.81,0,0,0,99.62,0V331.65c0-.13,0-.27,0-.4A40,40,0,0,0,451,332.48c0,.95.05,2,.14,3.13a4,4,0,0,1-5.11,4.17,41.37,41.37,0,0,0-39.48,70.15,4,4,0,0,1,.5,5.33,22.2,22.2,0,0,0-2.24,22.68,4,4,0,0,1-1.47,5.1,44.76,44.76,0,0,0,24,82.56H428Z" transform="translate(-265.41 -165.29)"/><path class="cls-2" d="M425,458.72a30.25,30.25,0,1,1,0-60.5,4,4,0,0,1,0,8,22.23,22.23,0,1,0,0,44.45,4,4,0,0,1,0,8Z" transform="translate(-265.41 -165.29)"/><path class="cls-2" d="M446.39,361a4,4,0,0,1-3.3-1.74,20.89,20.89,0,0,1-3.72-12A21.09,21.09,0,0,1,473,330.35a4,4,0,0,1-4.78,6.44,13.07,13.07,0,0,0-18.55,17.91,4,4,0,0,1-3.3,6.29Z" transform="translate(-265.41 -165.29)"/><path class="cls-2" d="M459.88,424.11A30.8,30.8,0,0,1,434.69,411a4,4,0,1,1,6.57-4.61A22.73,22.73,0,1,0,476,377.29a4,4,0,0,1,5.67-5.67,30.75,30.75,0,0,1-21.74,52.49Z" transform="translate(-265.41 -165.29)"/><path class="cls-2" d="M489.61,570.38a30.79,30.79,0,0,1-20.68-8,4,4,0,1,1,5.39-5.94,22.73,22.73,0,1,0,27.39-36.06,4,4,0,1,1,4.27-6.79,30.74,30.74,0,0,1-9.58,56A30.16,30.16,0,0,1,489.61,570.38Z" transform="translate(-265.41 -165.29)"/><path class="cls-2" d="M511.32,367.67a30.76,30.76,0,0,1-11.84-59.17,4,4,0,0,1,3.08,7.41,22.73,22.73,0,1,0,20.93,40.15,4,4,0,0,1,4.31,6.77A30.57,30.57,0,0,1,511.32,367.67Z" transform="translate(-265.41 -165.29)"/><path class="cls-2" d="M500.18,435.93A26.37,26.37,0,0,1,474,413.66a4,4,0,0,1,7.92-1.27,18.47,18.47,0,0,0,36.7-2.95,4,4,0,1,1,8,0A26.52,26.52,0,0,1,500.18,435.93Z" transform="translate(-265.41 -165.29)"/><path class="cls-2" d="M451.56,545.7a32.25,32.25,0,0,1-19.93-57.59,4,4,0,1,1,5,6.3,24.22,24.22,0,0,0,29.49,38.42,4,4,0,0,1,4.82,6.42A32,32,0,0,1,451.56,545.7Z" transform="translate(-265.41 -165.29)"/><path class="cls-2" d="M484.45,496.66A26.46,26.46,0,0,1,461.85,484a4,4,0,1,1,6.86-4.18,18.37,18.37,0,0,0,31.59-18.76,4,4,0,1,1,6.94-4,26.4,26.4,0,0,1-22.79,39.62Z" transform="translate(-265.41 -165.29)"/><path class="cls-4" d="M442.51,786.58l74-41.66-53.85-95.6h0l-74,41.66a54.86,54.86,0,0,0-20.87,74.72h0A54.87,54.87,0,0,0,442.51,786.58Z" transform="translate(-265.41 -165.29)"/><path class="cls-5" d="M369.35,768.32a54.86,54.86,0,0,1,22.29-72l73.95-41.66h0l-3-5.31h0l-74,41.66a54.86,54.86,0,0,0-20.87,74.72h0C368.28,766.6,368.81,767.47,369.35,768.32Z" transform="translate(-265.41 -165.29)"/><path class="cls-6" d="M438.55,782.22l71.68-40.38-27-48-71.67,40.38A27.54,27.54,0,0,0,401,771.74h0A27.54,27.54,0,0,0,438.55,782.22Z" transform="translate(-265.41 -165.29)"/><path class="cls-7" d="M649.52,785.68,575.57,744l53.85-95.59h0l74,41.66a54.86,54.86,0,0,1,20.87,74.72h0A54.87,54.87,0,0,1,649.52,785.68Z" transform="translate(-265.41 -165.29)"/><path class="cls-8" d="M722.68,767.41a54.86,54.86,0,0,0-22.29-72l-73.95-41.66h0l3-5.3h0l74,41.66a54.86,54.86,0,0,1,20.87,74.72h0C723.74,765.69,723.22,766.56,722.68,767.41Z" transform="translate(-265.41 -165.29)"/><path class="cls-9" d="M653.47,781.31,581.8,740.93l27-48,71.67,40.38A27.54,27.54,0,0,1,691,770.83h0A27.54,27.54,0,0,1,653.47,781.31Z" transform="translate(-265.41 -165.29)"/><path class="cls-10" d="M577.76,416.12a5.24,5.24,0,0,1-5-6.79,29.51,29.51,0,0,1,5.14-10.07l.6-4.26a27.59,27.59,0,0,1,15.22-19.83,20.65,20.65,0,0,1,9-1.94A48.45,48.45,0,0,1,614.08,375a42.94,42.94,0,0,0,9.82,1.61,14.26,14.26,0,0,0,8.08-2.35l7-4.55-.56,8.37c-.07.94-1.76,23-19.55,31.45a27.13,27.13,0,0,1-11.8,2.65c-5.83,0-11-1.71-15.49-3.22-1-.34-2-.66-2.91-1a3.49,3.49,0,0,0-1.06-.16,3.64,3.64,0,0,0-2.71,1.22,13.25,13.25,0,0,0-2.33,3.75A5.2,5.2,0,0,1,577.76,416.12Z" transform="translate(-265.41 -165.29)"/><path class="cls-11" d="M602.74,377.43c6.9,0,14,3.39,21.16,3.39a18.48,18.48,0,0,0,10.36-3s-1.39,20.47-17.15,27.92a23,23,0,0,1-10,2.25c-6.39,0-12.17-2.44-17.17-4a7.77,7.77,0,0,0-8.15,2.3,17.58,17.58,0,0,0-3.09,5,1,1,0,0,1-.94.64.81.81,0,0,1-.31-.05,1,1,0,0,1-.67-1.27c1.19-3.79,3.58-11.09,15-17.18a26,26,0,0,1,12.93-3.16c2.8,0,5.44.29,8.06.29A19.06,19.06,0,0,0,625,386.63s-3,1.75-10.56,1.75a65.45,65.45,0,0,1-11-1,20.55,20.55,0,0,0-3.35-.28c-10.5,0-17.34,8.37-17.49,8.51A23.39,23.39,0,0,1,595.53,379a16.52,16.52,0,0,1,7.21-1.55m41-15.79-14.09,9.1a10.07,10.07,0,0,1-5.8,1.67,40.11,40.11,0,0,1-8.84-1.49,52,52,0,0,0-12.32-1.9,24.73,24.73,0,0,0-10.8,2.35,31.78,31.78,0,0,0-17.59,23l-.45,3.14a33.68,33.68,0,0,0-5.14,10.52,9.45,9.45,0,0,0,2.3,9.47l0,.27.16-.15a9.33,9.33,0,0,0,3.73,2.23,9.17,9.17,0,0,0,2.85.44,9.37,9.37,0,0,0,8.75-5.93,9.06,9.06,0,0,1,1.34-2.23l2.44.8c4.59,1.53,10.31,3.44,16.82,3.44a31.57,31.57,0,0,0,13.6-3.06c20-9.45,21.87-33.93,21.94-35l1.14-16.74Z" transform="translate(-265.41 -165.29)"/><polygon class="cls-12" points="189.82 316.49 189.82 261.93 245.79 261.93 245.79 205.95 300.36 205.95 300.36 260.88 227.52 316.49 189.82 316.49"/><path class="cls-11" d="M562.77,374.24v50.45l-70.86,54.09H458.23V430.22h56v-56h48.57m6-6H508.2v56h-56v60.56h41.71l1.61-1.23,70.86-54.09,2.36-1.8V368.24Z" transform="translate(-265.41 -165.29)"/><polygon class="cls-13" points="246.75 373.55 246.75 317.57 218.31 317.57 301.31 256.54 301.31 263.01 357.28 263.01 357.28 317.57 301.31 317.57 301.31 373.55 246.75 373.55"/><path class="cls-11" d="M563.71,427.75v3.55h56v48.56h-56v56H515.16v-56h-22.3l70.85-52.11m6-11.86-9.55,7L489.31,475l-14.73,10.84h34.58v56h60.55v-56h56V425.3h-56v-9.41Z" transform="translate(-265.41 -165.29)"/><polygon class="cls-14" points="323.11 265.86 241.47 314.65 227.45 314.57 298.31 262.46 298.31 266.01 323.11 265.86"/><path class="cls-15" d="M619.69,431.3c-1.36-.12-104.53,48.56-104.53,48.56l-8.28.08,81.64-48.79Z" transform="translate(-265.41 -165.29)"/><polygon class="cls-16" points="226.5 313.49 297.06 241.34 297.36 259.4 226.5 313.49"/><polygon class="cls-17" points="214.73 313.53 297.36 225.69 297.04 242.51 226.5 313.49 214.73 313.53"/><path class="cls-11" d="M538.88,452.22l-5.3-8h-5.85v8h-6.37V423.63h11.9a14.86,14.86,0,0,1,6.35,1.27,9.52,9.52,0,0,1,4.14,3.59A10.21,10.21,0,0,1,545.2,434a10,10,0,0,1-1.47,5.49,9.44,9.44,0,0,1-4.18,3.53l6.16,9.19Zm-1.61-21.91a6.5,6.5,0,0,0-4.36-1.29h-5.18v10h5.18a6.45,6.45,0,0,0,4.36-1.31,5.3,5.3,0,0,0,0-7.37Z" transform="translate(-265.41 -165.29)"/><path class="cls-11" d="M552.79,472l-6.29-9.4-6.18,9.4H533.4L543,458.21l-9.15-13.31h6.84l6,8.78,5.88-8.78h6.51L550,458l9.72,14Z" transform="translate(-265.41 -165.29)"/><path class="cls-10" d="M536.48,450.69l-5.3-8h-5.86v8H519V422.1h11.9a14.64,14.64,0,0,1,6.34,1.27,9.49,9.49,0,0,1,4.15,3.59,10.18,10.18,0,0,1,1.45,5.51,10,10,0,0,1-1.47,5.5,9.44,9.44,0,0,1-4.18,3.53l6.16,9.19Zm-1.61-21.91a6.5,6.5,0,0,0-4.36-1.29h-5.19v10h5.19a6.45,6.45,0,0,0,4.36-1.31,5.3,5.3,0,0,0,0-7.37Z" transform="translate(-265.41 -165.29)"/><path class="cls-10" d="M550.39,470.45l-6.29-9.4-6.18,9.4H531l9.64-13.77-9.16-13.31h6.85l6,8.78,5.88-8.78h6.51l-9.08,13.08,9.72,14Z" transform="translate(-265.41 -165.29)"/><line class="cls-18" x1="168.52" y1="13.04" x2="206.26" y2="96.37"/><line class="cls-18" x1="281.16" y1="0.11" x2="277.88" y2="91.53"/><line class="cls-18" x1="387.58" y1="15.29" x2="350.12" y2="98.75"/><line class="cls-18" x1="476.65" y1="75.4" x2="409.78" y2="137.82"/><line class="cls-18" x1="545.2" y1="162.15" x2="461.84" y2="199.81"/><line class="cls-18" x1="561.47" y1="272.06" x2="470.05" y2="275.34"/><line class="cls-18" x1="540.03" y1="381.04" x2="454.84" y2="347.7"/><line class="cls-18" x1="16.4" y1="378.76" x2="101.61" y2="345.46"/><line class="cls-18" x1="0.12" y1="276.71" x2="91.52" y2="273.07"/><line class="cls-18" x1="15.56" y1="166.66" x2="102.44" y2="195.3"/><line class="cls-18" x1="80.78" y1="70.95" x2="143.71" y2="137.35"/><path class="cls-18" d="M379.88,241.88l41.94,46.53Z" transform="translate(-265.41 -165.29)"/><path class="cls-18" d="M460.78,198.39l26.4,56.81Z" transform="translate(-265.41 -165.29)"/><path class="cls-18" d="M562,193.66l-4.92,62.44Z" transform="translate(-265.41 -165.29)"/><path class="cls-18" d="M662.13,217.46l-34.47,52.3Z" transform="translate(-265.41 -165.29)"/><path class="cls-18" d="M733.91,274l-50.56,37Z" transform="translate(-265.41 -165.29)"/><path class="cls-18" d="M791.14,359.64l-59.47,19.67Z" transform="translate(-265.41 -165.29)"/><path class="cls-18" d="M801.43,457.22l-62.56,3Z" transform="translate(-265.41 -165.29)"/><path class="cls-18" d="M785.73,517.24l-61.05-14Z" transform="translate(-265.41 -165.29)"/><path class="cls-18" d="M315.35,320.35l57.24,25.43Z" transform="translate(-265.41 -165.29)"/><path class="cls-18" d="M293.1,423.68l62.63-.42Z" transform="translate(-265.41 -165.29)"/><path class="cls-18" d="M298.76,512.7l60.55-16Z" transform="translate(-265.41 -165.29)"/></g></g></svg>